<svg width="34" height="34" viewBox="0 0 34 34" fill="none" xmlns="http://www.w3.org/2000/svg">
<g filter="url(#filter0_d_93_3)">
<path d="M16.7764 1.0476L5.47106 5.12764C5.18861 5.2242 5 5.51202 5 5.79983V20.2C5 20.5121 5.18861 20.7756 5.47106 20.8722L16.7764 24.9522C16.8473 24.9756 16.9411 25 17.012 25C17.0589 25 17.0828 25 17.1297 25H17.1536C17.1766 25 17.2006 24.9756 17.2236 24.9756L28.5289 20.8956C28.8123 20.8 29 20.5121 29 20.2243V5.77546C29 5.75202 29 5.70421 29 5.67983V5.65546C28.9531 5.41545 28.7884 5.19983 28.5529 5.12764L22.9002 3.08762H22.8763C22.7355 3.03981 22.5469 3.01543 22.3822 3.08762L11.3593 7.04766C11.0768 7.14422 10.8882 7.43203 10.8882 7.71985V10.3599C10.8882 10.7677 11.1946 11.0799 11.5948 11.0799C11.995 11.0799 12.3014 10.7677 12.3014 10.3599V8.22423L22.6177 4.5042L26.1976 5.79983L16.7764 9.20767C16.494 9.30424 16.3054 9.56768 16.3054 9.87987C16.3054 9.87987 16.3054 9.87987 16.3054 9.90424V23.2956L6.41317 19.6956V6.30421L17.2475 2.39199C17.6247 2.24761 17.8124 1.8398 17.6716 1.47979C17.5539 1.09542 17.1536 0.904164 16.7764 1.0476ZM17.7185 10.3842L27.6107 6.80765V19.6721L17.7185 23.2478V10.3842Z" fill="#228BE6"/>
<path d="M16.6916 25.1873L16.6915 25.1874L16.6979 25.1895C16.773 25.2144 16.8988 25.25 17.012 25.25H17.0122H17.0125H17.0128H17.0131H17.0133H17.0136H17.0139H17.0141H17.0144H17.0147H17.015H17.0152H17.0155H17.0158H17.016H17.0163H17.0166H17.0168H17.0171H17.0174H17.0176H17.0179H17.0181H17.0184H17.0187H17.0189H17.0192H17.0195H17.0197H17.02H17.0202H17.0205H17.0208H17.021H17.0213H17.0215H17.0218H17.022H17.0223H17.0226H17.0228H17.0231H17.0233H17.0236H17.0238H17.0241H17.0243H17.0246H17.0248H17.0251H17.0253H17.0256H17.0258H17.0261H17.0263H17.0266H17.0268H17.0271H17.0273H17.0276H17.0278H17.0281H17.0283H17.0286H17.0288H17.0291H17.0293H17.0295H17.0298H17.03H17.0303H17.0305H17.0308H17.031H17.0312H17.0315H17.0317H17.032H17.0322H17.0324H17.0327H17.0329H17.0332H17.0334H17.0336H17.0339H17.0341H17.0343H17.0346H17.0348H17.0351H17.0353H17.0355H17.0358H17.036H17.0362H17.0365H17.0367H17.0369H17.0372H17.0374H17.0376H17.0379H17.0381H17.0383H17.0386H17.0388H17.039H17.0392H17.0395H17.0397H17.0399H17.0402H17.0404H17.0406H17.0408H17.0411H17.0413H17.0415H17.0418H17.042H17.0422H17.0424H17.0427H17.0429H17.0431H17.0433H17.0436H17.0438H17.044H17.0442H17.0445H17.0447H17.0449H17.0451H17.0453H17.0456H17.0458H17.046H17.0462H17.0465H17.0467H17.0469H17.0471H17.0473H17.0476H17.0478H17.048H17.0482H17.0484H17.0487H17.0489H17.0491H17.0493H17.0495H17.0497H17.05H17.0502H17.0504H17.0506H17.0508H17.051H17.0513H17.0515H17.0517H17.0519H17.0521H17.0523H17.0526H17.0528H17.053H17.0532H17.0534H17.0536H17.0538H17.0541H17.0543H17.0545H17.0547H17.0549H17.0551H17.0553H17.0556H17.0558H17.056H17.0562H17.0564H17.0566H17.0568H17.057H17.0573H17.0575H17.0577H17.0579H17.0581H17.0583H17.0585H17.0587H17.0589H17.0592H17.0594H17.0596H17.0598H17.06H17.0602H17.0604H17.0606H17.0608H17.0611H17.0613H17.0615H17.0617H17.0619H17.0621H17.0623H17.0625H17.0627H17.0629H17.0631H17.0634H17.0636H17.0638H17.064H17.0642H17.0644H17.0646H17.0648H17.065H17.0652H17.0654H17.0656H17.0659H17.0661H17.0663H17.0665H17.0667H17.0669H17.0671H17.0673H17.0675H17.0677H17.0679H17.0681H17.0684H17.0686H17.0688H17.069H17.0692H17.0694H17.0696H17.0698H17.07H17.0702H17.0704H17.0706H17.0708H17.071H17.0713H17.0715H17.0717H17.0719H17.0721H17.0723H17.0725H17.0727H17.0729H17.0731H17.0733H17.0735H17.0737H17.074H17.0742H17.0744H17.0746H17.0748H17.075H17.0752H17.0754H17.0756H17.0758H17.076H17.0762H17.0765H17.0767H17.0769H17.0771H17.0773H17.0775H17.0777H17.0779H17.0781H17.0783H17.0785H17.0787H17.079H17.0792H17.0794H17.0796H17.0798H17.08H17.0802H17.0804H17.0806H17.0808H17.0811H17.0813H17.0815H17.0817H17.0819H17.0821H17.0823H17.0825H17.0827H17.0829H17.0832H17.0834H17.0836H17.0838H17.084H17.0842H17.0844H17.0846H17.0849H17.0851H17.0853H17.0855H17.0857H17.0859H17.0861H17.0863H17.0866H17.0868H17.087H17.0872H17.0874H17.0876H17.0878H17.088H17.0883H17.0885H17.0887H17.0889H17.0891H17.0893H17.0896H17.0898H17.09H17.0902H17.0904H17.0906H17.0909H17.0911H17.0913H17.0915H17.0917H17.0919H17.0922H17.0924H17.0926H17.0928H17.093H17.0933H17.0935H17.0937H17.0939H17.0941H17.0943H17.0946H17.0948H17.095H17.0952H17.0955H17.0957H17.0959H17.0961H17.0963H17.0966H17.0968H17.097H17.0972H17.0975H17.0977H17.0979H17.0981H17.0984H17.0986H17.0988H17.099H17.0993H17.0995H17.0997H17.0999H17.1002H17.1004H17.1006H17.1008H17.1011H17.1013H17.1015H17.1018H17.102H17.1022H17.1024H17.1027H17.1029H17.1031H17.1034H17.1036H17.1038H17.1041H17.1043H17.1045H17.1048H17.105H17.1052H17.1055H17.1057H17.1059H17.1062H17.1064H17.1066H17.1069H17.1071H17.1073H17.1076H17.1078H17.108H17.1083H17.1085H17.1088H17.109H17.1092H17.1095H17.1097H17.11H17.1102H17.1104H17.1107H17.1109H17.1112H17.1114H17.1117H17.1119H17.1121H17.1124H17.1126H17.1129H17.1131H17.1134H17.1136H17.1139H17.1141H17.1143H17.1146H17.1148H17.1151H17.1153H17.1156H17.1158H17.1161H17.1163H17.1166H17.1168H17.1171H17.1173H17.1176H17.1179H17.1181H17.1184H17.1186H17.1189H17.1191H17.1194H17.1196H17.1199H17.1202H17.1204H17.1207H17.1209H17.1212H17.1214H17.1217H17.122H17.1222H17.1225H17.1227H17.123H17.1233H17.1235H17.1238H17.1241H17.1243H17.1246H17.1249H17.1251H17.1254H17.1257H17.1259H17.1262H17.1265H17.1267H17.127H17.1273H17.1275H17.1278H17.1281H17.1284H17.1286H17.1289H17.1292H17.1294H17.1297H17.1536C17.2025 25.25 17.241 25.2373 17.2622 25.229C17.2699 25.226 17.2773 25.2227 17.2837 25.2197L17.3084 25.2108L28.6116 21.1316C29.003 20.9981 29.25 20.6099 29.25 20.2243V5.77546V5.77532V5.77518V5.77504V5.7749V5.77476V5.77462V5.77448V5.77434V5.7742V5.77406V5.77391V5.77377V5.77363V5.77348V5.77334V5.77319V5.77304V5.7729V5.77275V5.7726V5.77245V5.7723V5.77215V5.77201V5.77185V5.7717V5.77155V5.7714V5.77125V5.7711V5.77094V5.77079V5.77063V5.77048V5.77032V5.77017V5.77001V5.76986V5.7697V5.76954V5.76938V5.76922V5.76906V5.7689V5.76874V5.76858V5.76842V5.76826V5.7681V5.76794V5.76777V5.76761V5.76745V5.76728V5.76712V5.76695V5.76679V5.76662V5.76646V5.76629V5.76612V5.76595V5.76579V5.76562V5.76545V5.76528V5.76511V5.76494V5.76477V5.7646V5.76443V5.76426V5.76408V5.76391V5.76374V5.76357V5.76339V5.76322V5.76304V5.76287V5.76269V5.76252V5.76234V5.76216V5.76199V5.76181V5.76163V5.76145V5.76128V5.7611V5.76092V5.76074V5.76056V5.76038V5.7602V5.76002V5.75984V5.75965V5.75947V5.75929V5.75911V5.75892V5.75874V5.75856V5.75837V5.75819V5.75801V5.75782V5.75764V5.75745V5.75726V5.75708V5.75689V5.7567V5.75652V5.75633V5.75614V5.75595V5.75576V5.75558V5.75539V5.7552V5.75501V5.75482V5.75463V5.75444V5.75425V5.75406V5.75386V5.75367V5.75348V5.75329V5.7531V5.7529V5.75271V5.75252V5.75232V5.75213V5.75194V5.75174V5.75155V5.75135V5.75116V5.75096V5.75076V5.75057V5.75037V5.75018V5.74998V5.74978V5.74959V5.74939V5.74919V5.74899V5.7488V5.7486V5.7484V5.7482V5.748V5.7478V5.7476V5.7474V5.7472V5.747V5.7468V5.7466V5.7464V5.7462V5.746V5.7458V5.7456V5.7454V5.74519V5.74499V5.74479V5.74459V5.74439V5.74418V5.74398V5.74378V5.74357V5.74337V5.74317V5.74296V5.74276V5.74256V5.74235V5.74215V5.74194V5.74174V5.74153V5.74133V5.74112V5.74092V5.74071V5.74051V5.7403V5.74009V5.73989V5.73968V5.73948V5.73927V5.73906V5.73886V5.73865V5.73844V5.73824V5.73803V5.73782V5.73761V5.73741V5.7372V5.73699V5.73678V5.73658V5.73637V5.73616V5.73595V5.73574V5.73554V5.73533V5.73512V5.73491V5.7347V5.73449V5.73428V5.73408V5.73387V5.73366V5.73345V5.73324V5.73303V5.73282V5.73261V5.7324V5.73219V5.73198V5.73177V5.73156V5.73135V5.73114V5.73094V5.73073V5.73052V5.73031V5.7301V5.72989V5.72968V5.72947V5.72926V5.72905V5.72884V5.72863V5.72842V5.72821V5.728V5.72779V5.72758V5.72737V5.72715V5.72694V5.72673V5.72652V5.72631V5.7261V5.72589V5.72568V5.72547V5.72526V5.72505V5.72484V5.72463V5.72442V5.72421V5.724V5.72379V5.72358V5.72337V5.72316V5.72295V5.72274V5.72254V5.72233V5.72212V5.72191V5.7217V5.72149V5.72128V5.72107V5.72086V5.72065V5.72044V5.72023V5.72002V5.71981V5.7196V5.7194V5.71919V5.71898V5.71877V5.71856V5.71835V5.71815V5.71794V5.71773V5.71752V5.71731V5.7171V5.7169V5.71669V5.71648V5.71627V5.71607V5.71586V5.71565V5.71545V5.71524V5.71503V5.71483V5.71462V5.71441V5.71421V5.714V5.71379V5.71359V5.71338V5.71318V5.71297V5.71277V5.71256V5.71236V5.71215V5.71195V5.71174V5.71154V5.71133V5.71113V5.71093V5.71072V5.71052V5.71032V5.71011V5.70991V5.70971V5.7095V5.7093V5.7091V5.7089V5.70869V5.70849V5.70829V5.70809V5.70789V5.70769V5.70749V5.70729V5.70709V5.70689V5.70669V5.70649V5.70629V5.70609V5.70589V5.70569V5.70549V5.70529V5.70509V5.7049V5.7047V5.7045V5.7043V5.70411V5.70391V5.70371V5.70352V5.70332V5.70312V5.70293V5.70273V5.70254V5.70234V5.70215V5.70195V5.70176V5.70157V5.70137V5.70118V5.70099V5.70079V5.7006V5.70041V5.70022V5.70003V5.69983V5.69964V5.69945V5.69926V5.69907V5.69888V5.69869V5.6985V5.69831V5.69812V5.69794V5.69775V5.69756V5.69737V5.69719V5.697V5.69681V5.69663V5.69644V5.69625V5.69607V5.69588V5.6957V5.69551V5.69533V5.69515V5.69496V5.69478V5.6946V5.69442V5.69423V5.69405V5.69387V5.69369V5.69351V5.69333V5.69315V5.69297V5.69279V5.69261V5.69243V5.69226V5.69208V5.6919V5.69172V5.69155V5.69137V5.6912V5.69102V5.69085V5.69067V5.6905V5.69032V5.69015V5.68998V5.6898V5.68963V5.68946V5.68929V5.68912V5.68895V5.68878V5.68861V5.68844V5.68827V5.6881V5.68793V5.68777V5.6876V5.68743V5.68726V5.6871V5.68693V5.68677V5.6866V5.68644V5.68628V5.68611V5.68595V5.68579V5.68563V5.68546V5.6853V5.68514V5.68498V5.68482V5.68466V5.68451V5.68435V5.68419V5.68403V5.68388V5.68372V5.68356V5.68341V5.68325V5.6831V5.68295V5.68279V5.68264V5.68249V5.68233V5.68218V5.68203V5.68188V5.68173V5.68158V5.68143V5.68129V5.68114V5.68099V5.68084V5.6807V5.68055V5.68041V5.68026V5.68012V5.67997V5.67983V5.65546V5.63125L29.2454 5.60749C29.1846 5.29653 28.9686 4.99651 28.6325 4.89059L22.985 2.85247L22.9439 2.83762H22.9149C22.7476 2.78796 22.5136 2.76041 22.2905 2.85494L11.2764 6.81178C10.8868 6.946 10.6382 7.33353 10.6382 7.71985V10.3599C10.6382 10.9013 11.0521 11.3299 11.5948 11.3299C12.1375 11.3299 12.5514 10.9013 12.5514 10.3599V8.39984L22.6176 4.77001L25.4628 5.79977L16.6933 8.9719C16.3084 9.10455 16.0554 9.4643 16.0554 9.87987V9.87988V9.87988V9.87989V9.8799V9.87991V9.87992V9.87992V9.87993V9.87994V9.87995V9.87996V9.87997V9.87998V9.87998V9.87999V9.88V9.88001V9.88002V9.88003V9.88004V9.88005V9.88006V9.88007V9.88008V9.8801V9.88011V9.88012V9.88014V9.88014V9.88016V9.88017V9.88017V9.88018V9.88019V9.8802V9.88021V9.88021V9.88022V9.88023V9.88024V9.88025V9.88026V9.88027V9.88028V9.88029V9.88029V9.8803V9.88031V9.88032V9.88033V9.88034V9.88035V9.88037V9.88038V9.88039V9.8804V9.88041V9.88042V9.88043V9.88044V9.88046V9.88047V9.88048V9.88049V9.88051V9.88052V9.88053V9.88054V9.88056V9.88057V9.88058V9.8806V9.88061V9.88063V9.88064V9.88065V9.88067V9.88068V9.8807V9.88071V9.88073V9.88074V9.88076V9.88078V9.88079V9.88081V9.88082V9.88084V9.88086V9.88087V9.88089V9.88091V9.88093V9.88094V9.88096V9.88098V9.881V9.88102V9.88104V9.88105V9.88107V9.88109V9.88111V9.88113V9.88115V9.88117V9.88119V9.88121V9.88124V9.88126V9.88128V9.8813V9.88132V9.88134V9.88136V9.88139V9.88141V9.88143V9.88146V9.88148V9.8815V9.88153V9.88155V9.88157V9.8816V9.88162V9.88165V9.88167V9.8817V9.88172V9.88175V9.88177V9.8818V9.88183V9.88186V9.88188V9.88191V9.88194V9.88196V9.88199V9.88202V9.88205V9.88208V9.88211V9.88214V9.88216V9.88219V9.88222V9.88225V9.88229V9.88232V9.88235V9.88238V9.88241V9.88244V9.88247V9.88251V9.88254V9.88257V9.8826V9.88264V9.88267V9.8827V9.88274V9.88277V9.88281V9.88284V9.88288V9.88291V9.88295V9.88299V9.88302V9.88306V9.8831V9.88313V9.88317V9.88321V9.88325V9.88329V9.88332V9.88336V9.8834V9.88344V9.88348V9.88352V9.88356V9.8836V9.88364V9.88369V9.88373V9.88377V9.88381V9.88385V9.8839V9.88394V9.88398V9.88403V9.88407V9.88412V9.88416V9.88421V9.88425V9.8843V9.88434V9.88439V9.88444V9.88448V9.88453V9.88458V9.88463V9.88467V9.88472V9.88477V9.88482V9.88487V9.88492V9.88497V9.88502V9.88507V9.88512V9.88517V9.88523V9.88528V9.88533V9.88538V9.88544V9.88549V9.88554V9.8856V9.88565V9.88571V9.88576V9.88582V9.88587V9.88593V9.88599V9.88604V9.8861V9.88616V9.88622V9.88628V9.88634V9.88639V9.88645V9.88651V9.88657V9.88663V9.88669V9.88676V9.88682V9.88688V9.88694V9.88701V9.88707V9.88713V9.8872V9.88726V9.88733V9.88739V9.88746V9.88752V9.88759V9.88765V9.88772V9.88779V9.88786V9.88792V9.88799V9.88806V9.88813V9.8882V9.88827V9.88834V9.88841V9.88848V9.88855V9.88863V9.8887V9.88877V9.88884V9.88892V9.88899V9.88907V9.88914V9.88922V9.88929V9.88937V9.88944V9.88952V9.8896V9.88968V9.88975V9.88983V9.88991V9.88999V9.89007V9.89015V9.89023V9.89031V9.89039V9.89048V9.89056V9.89064V9.89072V9.89081V9.89089V9.89097V9.89106V9.89115V9.89123V9.89132V9.8914V9.89149V9.89158V9.89167V9.89175V9.89184V9.89193V9.89202V9.89211V9.8922V9.89229V9.89238V9.89248V9.89257V9.89266V9.89275V9.89285V9.89294V9.89304V9.89313V9.89323V9.89332V9.89342V9.89352V9.89361V9.89371V9.89381V9.89391V9.89401V9.89411V9.89421V9.89431V9.89441V9.89451V9.89461V9.89471V9.89482V9.89492V9.89502V9.89513V9.89523V9.89534V9.89544V9.89555V9.89566V9.89576V9.89587V9.89598V9.89609V9.8962V9.89631V9.89642V9.89653V9.89664V9.89675V9.89686V9.89697V9.89709V9.8972V9.89732V9.89743V9.89754V9.89766V9.89778V9.89789V9.89801V9.89813V9.89825V9.89836V9.89848V9.8986V9.89872V9.89884V9.89896V9.89909V9.89921V9.89933V9.89945V9.89958V9.8997V9.89983V9.89995V9.90008V9.9002V9.90033V9.90046V9.90059V9.90071V9.90084V9.90097V9.9011V9.90123V9.90136V9.9015V9.90163V9.90176V9.90189V9.90203V9.90216V9.9023V9.90243V9.90257V9.90271V9.90284V9.90298V9.90312V9.90326V9.9034V9.90354V9.90368V9.90382V9.90396V9.9041V9.90424V22.9386L6.66317 19.5205V6.47974L17.3324 2.62713L17.3324 2.62717L17.3369 2.62547C17.8328 2.43565 18.0957 1.89225 17.9079 1.3976C17.7435 0.878703 17.1956 0.622064 16.6897 0.813116L5.38803 4.89182C4.99853 5.0261 4.75 5.41357 4.75 5.79983V20.2C4.75 20.6155 5.00307 20.9753 5.38798 21.108L16.6916 25.1873ZM17.9685 22.8916V10.5597L27.3607 7.16388V19.4967L17.9685 22.8916Z" stroke="#228BE6" stroke-width="0.5"/>
</g>
<defs>
<filter id="filter0_d_93_3" x="0.5" y="0.500122" width="33" height="32.9999" filterUnits="userSpaceOnUse" color-interpolation-filters="sRGB">
<feFlood flood-opacity="0" result="BackgroundImageFix"/>
<feColorMatrix in="SourceAlpha" type="matrix" values="0 0 0 0 0 0 0 0 0 0 0 0 0 0 0 0 0 0 127 0" result="hardAlpha"/>
<feOffset dy="4"/>
<feGaussianBlur stdDeviation="2"/>
<feComposite in2="hardAlpha" operator="out"/>
<feColorMatrix type="matrix" values="0 0 0 0 0 0 0 0 0 0 0 0 0 0 0 0 0 0 0.25 0"/>
<feBlend mode="normal" in2="BackgroundImageFix" result="effect1_dropShadow_93_3"/>
<feBlend mode="normal" in="SourceGraphic" in2="effect1_dropShadow_93_3" result="shape"/>
</filter>
</defs>
</svg>
