<svg width="47" height="19" viewBox="0 0 47 19" fill="none" xmlns="http://www.w3.org/2000/svg">
<path d="M7.8075 18L0.631501 1.2H5.7675L11.8155 15.744H8.7915L14.9835 1.2H19.6875L12.4875 18H7.8075ZM21.3909 18V1.2H26.1429V18H21.3909ZM38.6438 18.336C37.3158 18.336 36.0838 18.128 34.9478 17.712C33.8118 17.28 32.8278 16.672 31.9958 15.888C31.1798 15.104 30.5398 14.184 30.0758 13.128C29.6118 12.056 29.3798 10.88 29.3798 9.6C29.3798 8.32 29.6118 7.152 30.0758 6.096C30.5398 5.024 31.1878 4.096 32.0198 3.312C32.8518 2.528 33.8358 1.928 34.9718 1.512C36.1238 1.08 37.3798 0.863999 38.7398 0.863999C40.3238 0.863999 41.7398 1.128 42.9878 1.656C44.2358 2.184 45.2678 2.944 46.0838 3.936L43.0598 6.672C42.4838 6.048 41.8598 5.584 41.1878 5.28C40.5318 4.96 39.7958 4.8 38.9798 4.8C38.2598 4.8 37.6038 4.912 37.0118 5.136C36.4198 5.36 35.9158 5.688 35.4998 6.12C35.0838 6.536 34.7558 7.04 34.5158 7.632C34.2918 8.208 34.1798 8.864 34.1798 9.6C34.1798 10.304 34.2918 10.952 34.5158 11.544C34.7558 12.136 35.0838 12.648 35.4998 13.08C35.9158 13.496 36.4118 13.824 36.9878 14.064C37.5798 14.288 38.2278 14.4 38.9318 14.4C39.6358 14.4 40.3238 14.288 40.9958 14.064C41.6678 13.824 42.3478 13.424 43.0358 12.864L45.6998 16.2C44.7398 16.888 43.6278 17.416 42.3638 17.784C41.0998 18.152 39.8598 18.336 38.6438 18.336ZM41.4998 15.576V9.24H45.6998V16.2L41.4998 15.576Z" fill="#228BE6"/>
</svg>
